<?xml version="1.0"?>
<svg xmlns="http://www.w3.org/2000/svg" xmlns:xlink="http://www.w3.org/1999/xlink" xmlns:svgjs="http://svgjs.com/svgjs" version="1.1" width="512" height="512" x="0" y="0" viewBox="0 0 512 512" style="enable-background:new 0 0 512 512" xml:space="preserve" class=""><g><g xmlns="http://www.w3.org/2000/svg"><path d="m406 422h-240c-8.271 0-15-6.729-15-15s6.729-15 15-15h277.314l68.686-240h-385.955l-6.349-25.784-.011.003c-4.844-19.622-22.588-34.219-43.685-34.219h-31c-24.813 0-45 20.187-45 45h30c0-8.271 6.729-15 15-15h31c8.271 0 15 6.729 15 15h.456l56.352 228.856c-15.774 7.002-26.808 22.804-26.808 41.144 0 24.813 20.187 45 45 45h17.58c-1.665 4.695-2.58 9.742-2.58 15 0 24.813 20.187 45 45 45s45-20.187 45-45c0-5.258-.915-10.305-2.58-15h95.161c-1.665 4.695-2.58 9.742-2.58 15 0 24.813 20.187 45 45 45s45-20.187 45-45-20.188-45-45.001-45zm66.229-240-51.543 180h-242.931l-44.322-180zm-231.229 285c0 8.271-6.729 15-15 15s-15-6.729-15-15 6.729-15 15-15 15 6.729 15 15zm165 15c-8.271 0-15-6.729-15-15s6.729-15 15-15 15 6.729 15 15-6.729 15-15 15z" fill="#ff1818" data-original="#000000" style="" class=""/><path d="m286 0h30v60h-30z" fill="#ff1818" data-original="#000000" style="" class=""/><path d="m190.541 39.541h30v60h-30z" transform="matrix(.707 -.707 .707 .707 11.028 165.707)" fill="#ff1818" data-original="#000000" style="" class=""/><path d="m366.46 54.541h60v30h-60z" transform="matrix(.707 -.707 .707 .707 66.949 300.709)" fill="#ff1818" data-original="#000000" style="" class=""/></g></g></svg>
